<svg width="40" height="40" viewBox="0 0 40 40" fill="none" xmlns="http://www.w3.org/2000/svg">
<path d="M15.1581 11.3238L16.9869 10.268C17.7944 9.80174 18.8269 10.0784 19.2931 10.8859C19.8071 11.7761 19.4028 12.9192 18.4486 13.3014C17.4704 13.6932 17.0665 14.873 17.6118 15.7746L22.7972 24.3471C23.2992 25.1769 24.4173 25.3745 25.1732 24.7668C25.9394 24.1509 27.0743 24.3634 27.5659 25.2147L27.6098 25.2908C28.0733 26.0936 27.7982 27.12 26.9955 27.5835L25.1581 28.6443C23.3406 29.6937 21.0165 29.0709 19.9672 27.2534L13.7672 16.5147C12.7178 14.6972 13.3406 12.3731 15.1581 11.3238Z" stroke="#1A5319" stroke-width="2"/>
</svg>
